<svg xmlns="http://www.w3.org/2000/svg" width="47.594" height="47.59" viewBox="0 0 47.594 47.59">
  <defs>
    <style>
      .cls-1 {
        fill-rule: evenodd;
      }
    </style>
  </defs>
  <path id="icon" class="cls-1" d="M534.668,1121.47a1.591,1.591,0,0,0-2.248,0l-13.847,13.84-19.467,8.58-3-3,8.576-19.47,13.844-13.84a1.59,1.59,0,1,0-2.248-2.25l-14.268,14.26-14.477,32.87,32.868-14.47,14.266-14.27A1.592,1.592,0,0,0,534.668,1121.47Zm-20.173,11a1.606,1.606,0,0,0,2.25,0l13.332-13.34a1.591,1.591,0,0,0-2.25-2.25L514.5,1130.22A1.593,1.593,0,0,0,514.5,1132.47Zm-3.48-3.48a1.606,1.606,0,0,0,2.25,0l13.333-13.34a1.591,1.591,0,0,0-2.25-2.25l-13.333,13.33A1.6,1.6,0,0,0,511.015,1128.99Zm-3.481-3.49a1.581,1.581,0,0,0,2.25,0l13.333-13.33a1.591,1.591,0,0,0-2.25-2.25l-13.333,13.33A1.593,1.593,0,0,0,507.534,1125.5Z" transform="translate(-487.531 -1104.88)"/>
</svg>
