<svg xmlns="http://www.w3.org/2000/svg" xmlns:xlink="http://www.w3.org/1999/xlink" width="69.969" height="69.97" viewBox="0 0 69.969 69.97">
  <defs>
    <style>
      .cls-1 {
        fill-rule: evenodd;
        filter: url(#filter);
      }
    </style>
    <filter id="filter" x="926.031" y="3634.03" width="69.969" height="69.97" filterUnits="userSpaceOnUse">
      <feFlood result="flood" flood-color="#fff"/>
      <feComposite result="composite" operator="in" in2="SourceGraphic"/>
      <feBlend result="blend" in2="SourceGraphic"/>
    </filter>
  </defs>
  <path id="icon-play" class="cls-1" d="M955.934,3685.82a2.047,2.047,0,0,1-2.06-2.06v-29.52a2.062,2.062,0,0,1,3.379-1.59l17.714,14.77a2.053,2.053,0,0,1,0,3.16l-17.714,14.76A2.031,2.031,0,0,1,955.934,3685.82Zm2.06-27.19v20.73L970.431,3669Zm2.943,45.37a34.793,34.793,0,0,1-17.106-4.47,2.06,2.06,0,1,1,2.021-3.59,30.921,30.921,0,1,0-6.7-5.09,2.059,2.059,0,1,1-2.913,2.91A35.057,35.057,0,1,1,960.937,3704Z" transform="translate(-926.031 -3634.03)"/>
</svg>
