<svg xmlns="http://www.w3.org/2000/svg" width="18" height="24" viewBox="0 0 18 24">
  <defs>
    <style>
      .cls-1 {
        fill-rule: evenodd;
      }
    </style>
  </defs>
  <path id="icon-cart" class="cls-1" d="M1477,50h-1.5c0-1.657-2.02-3-4.5-3s-4.5,1.344-4.5,3H1465a3,3,0,0,0-3,3V68a3,3,0,0,0,3,3h12a3,3,0,0,0,2.99-3V53A3,3,0,0,0,1477,50Zm-6-1.5c1.66,0,3,.464,3,1.5h-6C1468,48.962,1469.34,48.5,1471,48.5Zm7.49,19.5a1.5,1.5,0,0,1-1.49,1.5h-12a1.5,1.5,0,0,1-1.5-1.5V66.5h14.99V68Zm0-3H1463.5V53a1.5,1.5,0,0,1,1.5-1.5h1.5V56h1.5V51.5h6V56h1.5V51.5h1.5a1.5,1.5,0,0,1,1.49,1.5V65Z" transform="translate(-1462 -47)"/>
</svg>
