<svg xmlns="http://www.w3.org/2000/svg" width="21.969" height="21.97" viewBox="0 0 21.969 21.97">
  <defs>
    <style>
      .cls-1 {
        fill-rule: evenodd;
      }
    </style>
  </defs>
  <path id="left" class="cls-1" d="M942.583,5770.43l4.772-4.77a0.735,0.735,0,0,1,1.04,1.04l-4.254,4.26,4.254,4.25a0.735,0.735,0,0,1-1.04,1.04l-4.772-4.77a0.731,0.731,0,0,1-.216-0.52A0.759,0.759,0,0,1,942.583,5770.43Zm3.4-10.4A10.98,10.98,0,1,1,935,5771.01,10.979,10.979,0,0,1,945.987,5760.03Zm0,20.49a9.51,9.51,0,1,0-9.512-9.51A9.526,9.526,0,0,0,945.987,5780.52Z" transform="translate(-935 -5760.03)"/>
</svg>
