<svg xmlns="http://www.w3.org/2000/svg" width="63.031" height="55.13" viewBox="0 0 63.031 55.13">
  <defs>
    <style>
      .cls-1 {
        fill-rule: evenodd;
      }
    </style>
  </defs>
  <path id="logos" class="cls-1" d="M413.108,6441.71H402.6l5.254,9.2Zm-11.822.77-5.254,9.19H406.54Zm18.39,9.19-5.254-9.19-5.254,9.19h10.508Zm-10.508,1.53,5.254,9.19,5.254-9.19H409.168Zm-13.136,0,5.254,9.19,5.254-9.19H396.032Zm-6.567,9.95h10.506l-5.253-9.18Zm36.778,0-5.253-9.18-5.252,9.18h10.5Zm-18.389-32.16-5.254,9.19h10.508Zm13.136,42.88,5.253-9.18h-10.5Zm-26.272,0,5.253-9.18H389.465Zm-11.821.77H393.4l-5.253-9.19Zm49.914,0-5.254-9.19-5.254,9.19h10.508Zm-10.508,1.53,5.254,9.19,5.254-9.19H422.3Zm-13.135,0,5.254,9.19,5.254-9.19H409.168Zm-21.017,9.19,5.253-9.19H382.9Zm-11.82.77h10.5l-5.254-9.19Zm26.269,0h10.508l-5.254-9.19Zm13.138,0h10.5l-5.253-9.19Zm18.387-9.19-5.252,9.19h10.5Z" transform="translate(-376.344 -6431)"/>
</svg>
