<svg xmlns="http://www.w3.org/2000/svg" width="21.969" height="21.97" viewBox="0 0 21.969 21.97">
  <defs>
    <style>
      .cls-1 {
        fill-rule: evenodd;
      }
    </style>
  </defs>
  <path id="right" class="cls-1" d="M979.417,5770.43l-4.772-4.77a0.735,0.735,0,0,0-1.04,1.04l4.254,4.26-4.254,4.25a0.735,0.735,0,0,0,1.04,1.04l4.772-4.77a0.731,0.731,0,0,0,.216-0.52A0.759,0.759,0,0,0,979.417,5770.43Zm-3.405-10.4A10.98,10.98,0,1,0,987,5771.01,10.978,10.978,0,0,0,976.012,5760.03Zm0,20.49a9.51,9.51,0,1,1,9.513-9.51A9.526,9.526,0,0,1,976.012,5780.52Z" transform="translate(-965.031 -5760.03)"/>
</svg>
